<svg xmlns="http://www.w3.org/2000/svg" viewBox="0 0 100 100" fill="none">
  <defs>
    <linearGradient id="csiGrad" x1="0%" y1="0%" x2="100%" y2="100%">
      <stop offset="0%" stop-color="#3b82f6"/>
      <stop offset="50%" stop-color="#2563eb"/>
      <stop offset="100%" stop-color="#1d4ed8"/>
    </linearGradient>
    <linearGradient id="glowGrad" x1="0%" y1="0%" x2="100%" y2="100%">
      <stop offset="0%" stop-color="#60a5fa" stop-opacity="0.8"/>
      <stop offset="100%" stop-color="#3b82f6" stop-opacity="0"/>
    </linearGradient>
  </defs>
  <rect width="100" height="100" rx="24" fill="#090d16" />
  <rect x="2" y="2" width="96" height="96" rx="22" stroke="url(#csiGrad)" stroke-width="2" stroke-opacity="0.4" />
  <!-- CSI Emblem Geometric Motif -->
  <circle cx="50" cy="50" r="32" stroke="url(#csiGrad)" stroke-width="4" stroke-dasharray="8 4" opacity="0.6"/>
  <circle cx="50" cy="50" r="24" fill="url(#csiGrad)" />
  <path d="M43 40C43 36.134 46.134 33 50 33C53.866 33 57 36.134 57 40H52C52 38.8954 51.1046 38 50 38C48.8954 38 48 38.8954 48 40V60C48 61.1046 48.8954 62 50 62C51.1046 62 52 61.1046 52 60H57C57 63.866 53.866 67 50 67C46.134 67 43 63.866 43 60V40Z" fill="white"/>
</svg>
